<svg width="45" height="37" viewBox="0 0 45 37" fill="none" xmlns="http://www.w3.org/2000/svg">
<path d="M44.4935 31.3204C45.9356 33.5977 44.1255 36.4444 41.2453 36.4444H3.75424C0.868538 36.4444 -0.933181 33.5933 0.506038 31.3204L19.2518 1.70727C20.6946 -0.571152 24.3081 -0.567024 25.7482 1.70727L44.4935 31.3204ZM22.5 25.1979C20.5153 25.1979 18.9063 26.6639 18.9063 28.4722C18.9063 30.2806 20.5153 31.7465 22.5 31.7465C24.4848 31.7465 26.0938 30.2806 26.0938 28.4722C26.0938 26.6639 24.4848 25.1979 22.5 25.1979ZM19.0881 13.4285L19.6676 23.1091C19.6947 23.562 20.1058 23.9167 20.6037 23.9167H24.3964C24.8942 23.9167 25.3053 23.562 25.3324 23.1091L25.912 13.4285C25.9413 12.9392 25.5137 12.5278 24.9759 12.5278H20.0241C19.4863 12.5278 19.0588 12.9392 19.0881 13.4285Z" fill="#FDD462"/>
</svg>
