<svg width="34" height="34" viewBox="0 0 34 34" fill="none" xmlns="http://www.w3.org/2000/svg">
<path d="M32.5833 29.75H31.1667V18.4166H28.3333V29.75H22.6667V18.4166H19.8333V29.75H14.1667V18.4166H11.3333V29.75H5.66667V18.4166H2.83333V29.75H1.41667C0.634667 29.75 0 30.3832 0 31.1666C0 31.95 0.634667 32.5833 1.41667 32.5833H32.5833C33.3653 32.5833 34 31.95 34 31.1666C34 30.3832 33.3653 29.75 32.5833 29.75Z" fill="white"/>
<path d="M33.2619 8.67261L17.6786 0.172613C17.255 -0.0568867 16.745 -0.0568867 16.3214 0.172613L0.738083 8.67261C0.283333 8.92053 0 9.39795 0 9.91645V14.1664C0 14.9499 0.634667 15.5831 1.41667 15.5831H32.5833C33.3653 15.5831 34 14.9499 34 14.1664V9.91645C34 9.39795 33.7167 8.92053 33.2619 8.67261ZM17 11.3331C15.4346 11.3331 14.1667 10.0652 14.1667 8.49978C14.1667 6.93436 15.4346 5.66645 17 5.66645C18.5654 5.66645 19.8333 6.93436 19.8333 8.49978C19.8333 10.0652 18.5654 11.3331 17 11.3331Z" fill="white"/>
</svg>
