<svg width="34" height="34" viewBox="0 0 34 34" fill="none" xmlns="http://www.w3.org/2000/svg">
<path d="M17.7808 20.5742V23.3296C18.7838 23.1596 19.2853 22.7247 19.2853 22.0235C19.2853 21.2769 18.4636 20.8873 17.7808 20.5742Z" fill="white"/>
<path d="M14.8369 15.3071C14.8369 16.0891 15.5438 16.439 16.2649 16.7563V14.1553C15.3129 14.2956 14.8369 14.6795 14.8369 15.3071Z" fill="white"/>
<path d="M25.5002 4.25L21.2502 0L17.0002 4.25L12.7502 0L8.50016 4.25L2.8335 0V32.5833C2.8335 33.3667 3.46816 34 4.25016 34H29.7502C30.5322 34 31.1668 33.3667 31.1668 32.5833V0L25.5002 4.25ZM17.7807 25.9647V28.2342H16.2649V26.01C14.4643 25.9732 12.8847 25.6558 11.5276 25.058V22.1368C12.8026 22.7672 14.8256 23.3197 16.2649 23.409V19.9778C13.7305 18.9947 11.5063 18.0412 11.5063 15.3071C11.5063 12.8237 13.7843 11.6563 16.2649 11.4113V9.71692H17.7807V11.3659C19.4694 11.4396 20.998 11.7796 22.3622 12.3845L21.3224 14.9742C20.1721 14.5024 18.9906 14.2148 17.7807 14.1114V17.3768C20.4696 18.411 22.6172 19.3531 22.6172 21.8592C22.6172 24.5012 20.4228 25.7224 17.7807 25.9647Z" fill="white"/>
</svg>
