<svg width="84" height="41" viewBox="0 0 84 41" fill="none" xmlns="http://www.w3.org/2000/svg">
<path d="M41.4544 24.154C40.4424 24.154 39.5331 23.978 38.7264 23.626C37.9344 23.2593 37.3111 22.7607 36.8564 22.13C36.4018 21.4847 36.1671 20.744 36.1524 19.908H38.2864C38.3598 20.6267 38.6531 21.2353 39.1664 21.734C39.6944 22.218 40.4571 22.46 41.4544 22.46C42.4078 22.46 43.1558 22.2253 43.6984 21.756C44.2558 21.272 44.5344 20.656 44.5344 19.908C44.5344 19.3213 44.3731 18.8447 44.0504 18.478C43.7278 18.1113 43.3244 17.8327 42.8404 17.642C42.3564 17.4513 41.7038 17.246 40.8824 17.026C39.8704 16.762 39.0564 16.498 38.4404 16.234C37.8391 15.97 37.3184 15.5593 36.8784 15.002C36.4531 14.43 36.2404 13.6673 36.2404 12.714C36.2404 11.878 36.4531 11.1373 36.8784 10.492C37.3038 9.84667 37.8978 9.348 38.6604 8.996C39.4378 8.644 40.3251 8.468 41.3224 8.468C42.7598 8.468 43.9331 8.82733 44.8424 9.546C45.7664 10.2647 46.2871 11.218 46.4044 12.406H44.2044C44.1311 11.8193 43.8231 11.306 43.2804 10.866C42.7378 10.4113 42.0191 10.184 41.1244 10.184C40.2884 10.184 39.6064 10.404 39.0784 10.844C38.5504 11.2693 38.2864 11.8707 38.2864 12.648C38.2864 13.2053 38.4404 13.66 38.7484 14.012C39.0711 14.364 39.4598 14.6353 39.9144 14.826C40.3838 15.002 41.0364 15.2073 41.8724 15.442C42.8844 15.7207 43.6984 15.9993 44.3144 16.278C44.9304 16.542 45.4584 16.96 45.8984 17.532C46.3384 18.0893 46.5584 18.852 46.5584 19.82C46.5584 20.568 46.3604 21.272 45.9644 21.932C45.5684 22.592 44.9818 23.1273 44.2044 23.538C43.4271 23.9487 42.5104 24.154 41.4544 24.154ZM48.7565 17.928C48.7565 16.696 49.0059 15.618 49.5045 14.694C50.0032 13.7553 50.6852 13.0293 51.5505 12.516C52.4305 12.0027 53.4059 11.746 54.4765 11.746C55.5325 11.746 56.4492 11.9733 57.2265 12.428C58.0039 12.8827 58.5832 13.4547 58.9645 14.144V11.944H60.9885V24H58.9645V21.756C58.5685 22.46 57.9745 23.0467 57.1825 23.516C56.4052 23.9707 55.4959 24.198 54.4545 24.198C53.3839 24.198 52.4159 23.934 51.5505 23.406C50.6852 22.878 50.0032 22.1373 49.5045 21.184C49.0059 20.2307 48.7565 19.1453 48.7565 17.928ZM58.9645 17.95C58.9645 17.0407 58.7812 16.2487 58.4145 15.574C58.0479 14.8993 57.5492 14.386 56.9185 14.034C56.3025 13.6673 55.6205 13.484 54.8725 13.484C54.1245 13.484 53.4425 13.66 52.8265 14.012C52.2105 14.364 51.7192 14.8773 51.3525 15.552C50.9859 16.2267 50.8025 17.0187 50.8025 17.928C50.8025 18.852 50.9859 19.6587 51.3525 20.348C51.7192 21.0227 52.2105 21.5433 52.8265 21.91C53.4425 22.262 54.1245 22.438 54.8725 22.438C55.6205 22.438 56.3025 22.262 56.9185 21.91C57.5492 21.5433 58.0479 21.0227 58.4145 20.348C58.7812 19.6587 58.9645 18.8593 58.9645 17.95ZM65.4057 9.986C65.0244 9.986 64.7017 9.854 64.4377 9.59C64.1737 9.326 64.0417 9.00333 64.0417 8.622C64.0417 8.24067 64.1737 7.918 64.4377 7.654C64.7017 7.39 65.0244 7.258 65.4057 7.258C65.7724 7.258 66.0804 7.39 66.3297 7.654C66.5937 7.918 66.7257 8.24067 66.7257 8.622C66.7257 9.00333 66.5937 9.326 66.3297 9.59C66.0804 9.854 65.7724 9.986 65.4057 9.986ZM66.3737 11.944V24H64.3717V11.944H66.3737ZM71.7878 13.902C72.1398 13.2127 72.6385 12.6773 73.2838 12.296C73.9438 11.9147 74.7431 11.724 75.6818 11.724V13.792H75.1538C72.9098 13.792 71.7878 15.0093 71.7878 17.444V24H69.7858V11.944H71.7878V13.902Z" fill="white"/>
<path d="M0.34082 14.9904L8.54395 6.78729C9.27637 6.05487 10.5459 6.56756 10.5459 7.61737V12.3049H17.1865C17.8359 12.3049 18.3584 12.8273 18.3584 13.4767V18.1642C18.3584 18.8137 17.8359 19.3361 17.1865 19.3361H10.5459V24.0236C10.5459 25.0685 9.28125 25.5861 8.54395 24.8537L0.34082 16.6506C-0.113281 16.1916 -0.113281 15.4494 0.34082 14.9904ZM15.2334 7.03143V8.98456C15.2334 9.30682 15.4971 9.5705 15.8193 9.5705H19.9209C20.7852 9.5705 21.4834 10.2687 21.4834 11.133V20.508C21.4834 21.3723 20.7852 22.0705 19.9209 22.0705H15.8193C15.4971 22.0705 15.2334 22.3342 15.2334 22.6564V24.6096C15.2334 24.9318 15.4971 25.1955 15.8193 25.1955H19.9209C22.5088 25.1955 24.6084 23.0959 24.6084 20.508V11.133C24.6084 8.5451 22.5088 6.44549 19.9209 6.44549H15.8193C15.4971 6.44549 15.2334 6.70917 15.2334 7.03143Z" fill="white"/>
</svg>
