<svg width="25" height="25" viewBox="0 0 25 25" fill="none" xmlns="http://www.w3.org/2000/svg">
<path d="M24.6602 21.6143L19.7915 16.7466C19.5718 16.5269 19.2739 16.4048 18.9614 16.4048H18.1655C19.5132 14.6812 20.314 12.5137 20.314 10.1553C20.314 4.54541 15.7676 0 10.1572 0C4.54688 0 0 4.54541 0 10.1553C0 15.7651 4.54639 20.3105 10.1572 20.3105C12.5156 20.3105 14.6841 19.5098 16.4077 18.1621V18.958C16.4077 19.2705 16.5298 19.5684 16.7495 19.7881L21.6182 24.6558C22.0772 25.1147 22.8193 25.1147 23.2734 24.6558L24.6553 23.2739C25.1143 22.8149 25.1143 22.0732 24.6602 21.6143ZM10.1572 17.1855C6.27344 17.1855 3.12598 14.0439 3.12598 10.1553C3.12598 6.27197 6.26807 3.125 10.1572 3.125C14.041 3.125 17.1885 6.2666 17.1885 10.1553C17.1885 14.0386 14.0464 17.1855 10.1572 17.1855ZM11.481 9.7373L9.2832 9.07812C9.03125 9.00244 8.85498 8.74707 8.85498 8.45654C8.85498 8.10156 9.11377 7.8125 9.43115 7.8125H10.8037C11.0264 7.8125 11.2412 7.87549 11.4297 7.99414C11.5879 8.09326 11.7891 8.0874 11.9243 7.9585L12.498 7.41113C12.6704 7.24658 12.6606 6.96143 12.4702 6.81836C12.0259 6.48486 11.4897 6.29248 10.9385 6.26416V5.46875C10.9385 5.25293 10.7637 5.07812 10.5479 5.07812H9.7666C9.55078 5.07812 9.37598 5.25293 9.37598 5.46875V6.25586C8.22217 6.28662 7.29199 7.25928 7.29199 8.45654C7.29199 9.43164 7.92627 10.3027 8.83399 10.5752L11.0317 11.2344C11.2837 11.3101 11.46 11.5654 11.46 11.856C11.46 12.2109 11.2012 12.5 10.8838 12.5H9.51172C9.28906 12.5 9.07422 12.437 8.88574 12.3184C8.72754 12.2192 8.52637 12.2251 8.39111 12.354L7.81738 12.9014C7.64502 13.0659 7.65479 13.3511 7.84522 13.4941C8.28955 13.8276 8.82568 14.02 9.37695 14.0483V14.8438C9.37695 15.0596 9.55176 15.2344 9.76758 15.2344H10.5488C10.7646 15.2344 10.9395 15.0596 10.9395 14.8438V14.0566C12.0933 14.0259 13.0234 13.0537 13.0234 11.856C13.0234 10.8809 12.3892 10.0098 11.481 9.7373Z" fill="white"/>
</svg>
